<svg xmlns="http://www.w3.org/2000/svg" viewBox="0 0 400 400"><g fill-rule="evenodd"><path fill="#fabd05" d="M189.474.201c-1.248.082-3.576.275-5.173.43-1.597.154-3.843.365-4.991.469-4.071.368-10.887 1.333-15.335 2.171-.999.188-2.959.556-4.356.818-1.398.261-2.683.551-2.856.643-.173.093-.471.168-.661.168-.19 0-1.131.204-2.092.454-.96.249-1.94.454-2.177.454-.237 0-.659.118-.938.263-.279.145-.962.318-1.518.385-.556.066-1.133.223-1.283.348-.149.125-.844.332-1.542.459-.699.127-1.316.301-1.372.386-.056.085-.587.243-1.18.352-.593.108-1.323.303-1.623.432-.299.13-1.197.414-1.996.632-1.412.385-3.257.979-3.993 1.285-.199.083-.812.288-1.361.456-.549.168-1.161.407-1.361.531-.2.124-.608.272-.907.329-.792.152-3.438 1.105-3.509 1.265-.033.075-.136.136-.229.136s-.515.154-.938.341c-.423.188-1.422.564-2.221.836-.798.272-1.819.657-2.269.856-.449.199-1.061.466-1.361.593-.299.127-1.044.446-1.656.708-.611.263-1.195.477-1.296.477-.102 0-.232.123-.289.273-.058.149-.233.272-.39.272s-.793.234-1.413.521c-.619.287-1.433.63-1.807.763-.374.132-.68.296-.68.364 0 .067-.266.224-.59.348-.96.366-7.223 3.496-7.324 3.661-.051.083-.245.15-.43.15-.186 0-.365.074-.398.164-.033.089-.551.403-1.15.696-1.456.713-2.839 1.491-3.19 1.796-.157.136-.408.248-.556.248-.148 0-.439.159-.647.353-.209.194-.653.478-.987.631-.335.154-1.18.645-1.879 1.092-.699.447-1.373.816-1.497.82-.125.005-.227.084-.227.176 0 .154-.644.557-2.632 1.647-.399.219-.894.554-1.1.744-.207.19-.423.345-.481.345-.123 0-1.832 1.124-2.502 1.645-.25.194-.711.557-1.025.806-.314.249-.661.453-.771.453-.11 0-.201.082-.201.182 0 .101-.497.693-1.105 1.316-1.729 1.772-1.798 1.855-1.798 2.155 0 .156-.163.43-.361.61-.198.179-.46.6-.581.935-.121.335-.286.609-.365.609-.08 0-.145.127-.145.282 0 .154-.131.533-.29.841-.94 1.818-1.688 9.713-.987 10.414.097.096.292.729.433 1.406.142.677.39 1.376.551 1.554.161.178.293.468.293.644s.161.547.358.824c.197.277.446.698.552.935.873 1.945 3.514 4.707 5.968 6.24.16.1.331.227.381.283.05.055.377.213.726.35.349.138.83.398 1.068.58.238.181.58.33.761.33.18 0 .369.068.421.151.101.164 1.116.4 3.665.853 2.215.394 6.448.14 7.787-.467.2-.09.935-.374 1.634-.631 1.202-.442 1.688-.711 3.478-1.932.415-.283.824-.518.907-.522.084-.005.435-.25.78-.545.346-.295.73-.537.853-.537.124 0 .29-.112.37-.248.134-.229.829-.669 3.1-1.964.471-.269 1.023-.567 1.227-.662.204-.095.479-.305.612-.465.133-.16.316-.291.407-.291.09 0 .754-.34 1.475-.756 1.891-1.092 3.256-1.83 5.212-2.819.948-.479 1.751-.932 1.785-1.007.033-.075.141-.136.241-.136.165 0 3.591-1.619 5.621-2.656.463-.236.961-.43 1.107-.43.147 0 .626-.19 1.065-.422.439-.232 1.41-.656 2.159-.943.749-.286 1.522-.627 1.719-.757.197-.131.537-.237.756-.237.219 0 .426-.063.459-.141.094-.219 3.508-1.522 7.048-2.692.749-.247 1.524-.52 1.724-.607.2-.087.935-.338 1.634-.558.698-.22 1.719-.544 2.268-.72.919-.294 1.866-.573 4.537-1.335 3.127-.893 8.893-.612 8.893.433 0 .075.205.187.456.25.414.104 2.821 1.986 2.96 2.313.031.075.36.528.731 1.007 2.294 2.966 2.79 7.679 1.145 10.89-.215.42-.392.89-.392 1.044 0 .153-.061.28-.136.28-.075.001-.337.307-.584.681-.246.374-.815 1.006-1.263 1.405-.449.4-1.009.913-1.245 1.14-.236.228-.811.586-1.277.795-.467.21-1.175.527-1.574.706-.812.363-2.751.903-3.721 1.036-.349.048-.722.157-.829.242-.107.085-.729.279-1.383.431-.654.151-1.424.398-1.712.548-.287.15-.664.273-.838.274-.173 0-1.184.327-2.247.727-1.063.399-2.047.726-2.187.726-.14 0-.435.117-.656.261-.221.144-1.076.509-1.899.812-.823.303-1.86.716-2.304.918-.444.203-.925.368-1.07.368-.144 0-.31.123-.367.272-.058.15-.28.272-.494.272-.214 0-.686.153-1.049.34-.363.186-.864.422-1.114.524-1.795.732-3.213 1.398-6.159 2.893-1.853.941-3.446 1.787-3.541 1.881-.095.093-.292.17-.437.17-.145 0-.522.197-.837.437-.315.241-.854.567-1.197.726-1.063.492-2.424 1.334-2.493 1.543-.037.109-.203.199-.369.201-.29.003-1.431.678-2.39 1.413-.249.191-.795.521-1.212.734-.418.212-.811.468-.873.57-.063.101-.268.184-.457.184s-.409.115-.489.256c-.079.141-.716.642-1.415 1.112-.699.471-1.352.954-1.452 1.074-.1.121-.396.335-.659.477-.82.442-3.136 2.099-3.498 2.503-.19.212-.422.385-.516.385-.213 0-1.081.648-1.831 1.367-.316.303-.81.712-1.099.908-.288.196-.641.439-.784.538-.143.1-.723.614-1.29 1.143-.567.528-1.255 1.082-1.53 1.229-.274.148-.499.349-.499.446 0 .097-.09.177-.199.177-.109 0-.851.653-1.649 1.452-.797.798-1.48 1.452-1.517 1.452-.037 0-.52.449-1.074.998-.553.549-1.043.998-1.088.998-.153 0-1.733 1.673-1.733 1.835 0 .089-.102.162-.228.162-.125 0 12.595 12.822 28.268 28.493 25.864 25.863 29.129 29.033 29.129 28.284 0-.21.778-2.005 1.088-2.513.092-.149.387-.635.657-1.078 2.984-4.915 5.981-6.379 13.523-6.607 3.466-.104 4.808-.306 5.603-.843.25-.168.577-.363.726-.433.15-.07.438-.226.639-.347.202-.121.774-.456 1.271-.745.497-.288 1.23-.786 1.629-1.106.4-.319.823-.614.941-.654.911-.313 3.12-2.423 3.636-3.473 1.546-3.145 1.74-5.734.697-9.305-.233-.799-.518-2.187-.632-3.085-.249-1.953-.538-2.995-.832-2.995-1.469 0-2.078-1.131-2.626-4.877-.18-1.236-.398-2.297-.484-2.36-.48-.351-1.187-3.018-1.103-4.161.1-1.339.375-1.578 1.404-1.215.975.344 1.356.242 1.188-.32-.795-2.662-1.051-7.362-.476-8.755.082-.199.376-.955.654-1.679.277-.723.571-1.315.653-1.315.082 0 .205-.225.272-.5.068-.274.355-.783.639-1.13.284-.347.516-.695.516-.773 0-.135.705-.937 2.29-2.603 3.916-4.117 10.174-5.871 14.882-4.172.711.256 1.381.466 1.489.466.175 0 1.802 1.012 2.029 1.261.049.055.376.254.725.441.686.368 3.63 3.275 3.63 3.583 0 .103.225.414.499.691.697.703 2.098 3.126 2.685 4.641.835 2.154.767 9.391-.09 9.677-.105.035-.19.22-.19.411 0 .427.672.473 1.19.081 1.166-.881 2.026.661 1.527 2.738-.131.547-.306 1.036-.389 1.087-.082.051-.15.274-.15.496 0 .221-.123.578-.274.793-.277.395-.598 1.854-.991 4.499-.269 1.804-.693 2.488-1.734 2.795-.97.287-1.118.608-1.453 3.146-.144 1.093-.341 2.287-.436 2.652-.843 3.216-.298 7.822 1.056 8.921.061.05.247.336.413.635.165.3.451.627.635.728.183.101.581.427.884.726.66.651 1.447 1.273 2.127 1.682.274.165.499.364.499.442 0 .079.12.143.266.143.249 0 2.266 1.278 2.775 1.757.125.119.411.273.635.343.224.07.602.28.84.466.238.185.61.338.826.338.216 0 .484.091.595.202.122.121 1.503.264 3.44.356 1.78.084 3.563.203 3.962.265 1.373.214 3.666.803 4.192 1.078.29.151.596.275.681.275.261.002 2.899 1.956 3.488 2.584 1.245 1.327 2.454 3.249 3.536 5.62.123.269.325.529.45.576.126.049 12.648-12.335 28.376-28.063l28.15-28.15-.295-.451c-.338-.517-1.324-1.494-3.276-3.247-.751-.675-1.684-1.533-2.073-1.908-.388-.374-.788-.68-.888-.68-.099 0-.181-.125-.181-.278 0-.153-.143-.331-.318-.395-.174-.064-.487-.286-.695-.493-.208-.207-.698-.637-1.089-.954-.391-.318-.968-.787-1.282-1.044-.314-.256-.623-.466-.686-.466-.064 0-.356-.224-.649-.499-.294-.274-.76-.68-1.038-.901-1.371-1.093-2.116-1.67-3.228-2.502-.667-.499-1.481-1.132-1.809-1.406-.329-.275-.687-.499-.798-.499-.214 0-2.3-1.535-2.479-1.824-.059-.095-.251-.173-.427-.173-.177 0-.513-.204-.747-.454-.235-.249-.528-.453-.653-.453s-.458-.191-.74-.424c-.282-.232-.799-.579-1.148-.771-.349-.191-.921-.559-1.27-.817-.611-.45-2.062-1.284-3.494-2.008-.374-.19-.681-.414-.681-.499 0-.085-.225-.2-.5-.255-.276-.055-.745-.31-1.044-.567-.298-.256-.726-.467-.951-.467-.225 0-.408-.084-.408-.186s-.215-.268-.478-.367c-.262-.1-.704-.343-.981-.54-.276-.198-.599-.359-.717-.359-.117 0-.7-.285-1.294-.633-.595-.349-1.303-.686-1.573-.751-.271-.064-.615-.216-.765-.339-.371-.303-2.344-1.181-2.653-1.181-.138 0-.251-.078-.251-.174 0-.096-.326-.272-.726-.392-.399-.119-.726-.27-.726-.334s-.428-.264-.953-.444c-.524-.179-1.29-.477-1.704-.662-.413-.185-.964-.39-1.225-.455-.26-.065-.473-.192-.473-.281 0-.089-.186-.161-.414-.161-.227 0-.574-.107-.771-.237-.43-.284-2.388-1.008-4.26-1.574-.749-.226-1.604-.536-1.9-.687-.297-.151-.991-.381-1.543-.51-.552-.129-1.616-.454-2.365-.724-.748-.269-1.769-.597-2.268-.729-2.572-.68-3.835-1.083-4.051-1.294-.132-.129-.459-.286-.726-.349-.948-.224-4.199-3.124-4.211-3.757-.002-.117-.164-.416-.359-.666-.195-.249-.357-.596-.359-.771-.002-.175-.075-.318-.161-.318-.902 0-1.13-5.844-.308-7.894 1.117-2.786 4.078-6.262 5.335-6.262.1 0 .577-.195 1.059-.433 2.631-1.3 4.76-1.138 11.578.88 1.194.353 2.317.642 2.495.642.179 0 .325.075.325.167 0 .092.562.295 1.249.451.687.156 1.633.449 2.103.65.469.201 1.479.58 2.244.842.765.261 1.473.536 1.573.611.099.075.487.191.862.258.374.068.68.201.68.296 0 .095.127.173.282.173.156 0 .646.166 1.09.368.444.202 1.471.613 2.284.912.812.3 1.69.656 1.951.791.26.135.922.433 1.471.661.549.228 1.68.728 2.514 1.111.833.382 1.629.695 1.769.695.14 0 .254.075.254.167 0 .092.307.266.681.386.374.12.803.32.953.445.15.124.599.367.998.54 1.34.579 1.632.729 1.882.966.137.13.484.283.771.34.288.058.523.178.523.268 0 .09.225.245.499.346.714.261.784.296 1.588.802.399.251.93.547 1.18.658.249.111.576.275.726.365.15.09.619.342 1.043.561.425.219.772.464.772.544 0 .08.119.145.264.145.145 0 .544.184.887.409.69.453 1.565.992 2.28 1.406.259.15.728.457 1.043.681.315.224.706.408.868.408.162 0 .341.119.397.265.056.145.482.485.947.755.465.27 1.334.813 1.931 1.207 5.854 3.86 14.437 4.289 19.191.959.222-.155.545-.282.719-.282.174 0 .404-.163.51-.361.106-.199.415-.478.687-.62.601-.316 2.846-2.475 3.585-3.449 3.808-5.016 4.812-12.239 2.449-17.621-.219-.499-.518-1.193-.664-1.543-.314-.75-.297-.722-1.325-2.193-.938-1.341-3.405-3.845-4.189-4.251-.298-.154-.542-.354-.542-.445 0-.09-.156-.214-.347-.274-.191-.061-.652-.352-1.023-.648-.372-.295-.825-.537-1.005-.537-.181 0-.398-.122-.481-.271-.14-.251-2.387-1.725-3.224-2.116-.554-.259-1.108-.594-1.452-.88-.368-.305-.829-.581-1.815-1.084-.399-.204-1.134-.626-1.633-.937-.499-.312-1.456-.851-2.127-1.198-.67-.347-1.313-.745-1.428-.884-.116-.139-.307-.253-.425-.253s-.6-.245-1.073-.544c-.472-.3-.978-.545-1.124-.545-.146 0-.266-.065-.266-.145 0-.079-.303-.254-.674-.388-.371-.134-.785-.355-.92-.49-.136-.136-.465-.3-.733-.365-.267-.066-.527-.169-.577-.23-.176-.216-2.368-1.285-2.634-1.285-.148 0-.27-.066-.27-.145 0-.08-.306-.255-.68-.389-.375-.134-.876-.396-1.114-.581-.238-.186-.531-.337-.652-.337s-.889-.327-1.706-.726c-.817-.399-1.527-.726-1.578-.726-.051 0-.64-.249-1.31-.554-.67-.305-1.381-.623-1.58-.706-.2-.083-.864-.365-1.475-.625-.611-.261-1.168-.474-1.238-.474-.069 0-.249-.123-.399-.273-.149-.149-.454-.272-.676-.272-.223 0-.482-.07-.577-.157-.095-.086-.418-.244-.717-.351-.3-.107-1.32-.492-2.269-.856-2.843-1.092-5.671-2.097-6.435-2.287-.396-.099-.804-.249-.908-.335-.104-.086-.707-.29-1.341-.454-.633-.164-1.287-.365-1.451-.446-.165-.082-.872-.318-1.571-.525-.698-.206-2.169-.665-3.267-1.018-1.099-.354-2.364-.723-2.813-.821-1.553-.34-3.178-.752-3.72-.945-.299-.106-1.076-.301-1.725-.433s-1.384-.317-1.633-.411c-.249-.095-.902-.232-1.451-.305-.549-.074-1.085-.204-1.191-.289-.106-.085-.841-.275-1.633-.422-2.679-.498-6.177-1.179-6.988-1.36-.88-.196-2.273-.415-5.343-.84-1.098-.152-2.813-.398-3.811-.546-3.436-.51-7.528-.905-12.16-1.173-1.697-.098-3.616-.259-4.265-.358-1.4-.213-17.037-.202-20.326.014M.224 189.474c0 .349.037.492.083.317.045-.174.045-.46 0-.635-.046-.175-.083-.032-.083.318m-.175 17.423c0 .449.036.632.079.408.043-.225.043-.592 0-.817-.043-.224-.079-.041-.079.409M173 219.782c0 .35.038.493.083.318.046-.175.046-.461 0-.635-.045-.175-.083-.032-.083.317m-16.24 12.473c.325.04.856.04 1.18 0 .325-.041.059-.073-.59-.073s-.914.032-.59.073"/><path fill="#ea4436" d="M46.098 81.417c-2.89.545-6.005 1.642-6.967 2.452-.111.093-.61.431-1.109.75-1.556.996-3.902 3.506-5.215 5.581-3.507 5.541-6.618 10.695-7.944 13.158-.322.598-.811 1.497-1.087 1.996-1.772 3.211-6.325 12.569-6.416 13.186-.024.164-.135.408-.246.543-.304.371-3.694 8.614-4.466 10.863-.154.449-.486 1.358-.738 2.02-.252.663-.403 1.259-.336 1.326.067.067.03.178-.083.248-.215.133-.782 1.575-1.333 3.393-.182.599-.629 2.028-.994 3.176-1.785 5.612-4.011 14.144-4.973 19.056-.303 1.547-.673 3.426-.823 4.174-.637 3.182-1.762 10.831-2.095 14.247-.108 1.098-.234 2.242-.282 2.541-1.549 9.766-1.128 33.32.84 47.005.554 3.848 1.416 9.123 1.692 10.345.135.599.342 1.62.459 2.269.466 2.579 1.515 6.994 1.688 7.103.101.064.137.191.08.284-.676 1.094 7.195 24.89 10.685 32.302.244.518.443.981.443 1.03 0 .084.424 1.022 1.94 4.29 3.141 6.776 8.403 16.367 12.197 22.232.452.699.978 1.557 1.169 1.906 1.142 2.086 2.476 3.843 3.912 5.155.339.309.706.649.817.756 2.236 2.153 6.734 3.832 10.758 4.015 14.599.664 23.874-15.711 15.756-27.817-.447-.667-.814-1.309-.814-1.425 0-.116-.367-.771-.816-1.455-.449-.683-.817-1.264-.817-1.29 0-.026-.622-1.055-1.383-2.287-2.89-4.682-7.416-13.358-9.404-18.03-.468-1.098-1.038-2.404-1.268-2.903-.23-.499-.887-2.133-1.459-3.63-.572-1.497-1.15-3.008-1.285-3.358-1.943-5.03-4.468-13.35-4.81-15.851-.562-4.106 1.219-8.25 4.533-10.547.403-.279.681-.589.619-.689-.062-.101.001-.143.14-.095.138.048.693-.106 1.233-.342 2.756-1.208 7.122-1.194 9.017.027.209.135.527.272.707.305.716.131 3.201 2.49 4.055 3.849.836 1.331.98 1.727 2.406 6.646.873 3.011 1.161 3.912 2.152 6.715.511 1.448 1.058 3 1.215 3.449.158.449.349.898.425.998.076.1.242.508.37.907.957 2.998 5.45 12.499 8.109 17.151.199.349.876 1.534 1.505 2.632 1.281 2.24 5.272 8.356 7.165 10.98 1.198 1.661 4.943 6.529 5.166 6.715.06.05.679.785 1.376 1.633 1.883 2.293 4.086 4.741 6.321 7.025l1.99 2.033 13.843-13.839c12.992-12.987 14.709-14.82 13.889-14.82-1.301 0-4.155-4.56-5.655-9.038-1.847-5.507-2.281-2.242-.701 5.273.757 3.604-.153 4.547-1.618 1.675-.533-1.045-1.692-4.316-1.927-5.441-.319-1.522-.868-2.02-1.077-.976-.167.836-.13 2.866.068 3.698.095.399.228 1.491.296 2.426l.123 1.7-.436-.126c-1.709-.494-2.87-4.725-2.604-9.49.092-1.657.069-2.223-.09-2.223-.118 0-.164-.082-.102-.182.192-.311-.129-.198-.386.136-.134.175-.582.971-.994 1.77-1.216 2.352-2.012 3.176-3.069 3.176-.599 0-.344-1.012.894-3.539 2.747-5.607 3.125-6.37 3.282-6.624.092-.15.586-.967 1.098-1.815 1.035-1.715 2.615-3.884 3.637-4.991 3.522-3.817 7.813-10.824 11.225-18.331.318-.698.691-1.515.83-1.814.945-2.042 2.043-4.679 4.271-10.255 1.686-4.219 1.766-4.4 3.355-7.531 1.604-3.16 3.131-5.65 5.622-9.165 3.412-4.816 4.385-6.469 5.558-9.438.296-.749.659-1.624.807-1.944 1.225-2.657 3.418-10.853 3.802-14.208.608-5.317 1.784-11.986 2.632-14.926.295-1.024.524-1.984.508-2.134-.016-.15-12.881-13.095-28.59-28.766L99.804 99.909l-2.089 2.135c-1.244 1.271-2.037 2.219-1.961 2.342.074.119.048.158-.061.091-.188-.117-.724.419-2.59 2.595-.549.64-1.385 1.609-1.857 2.153-.473.544-1.208 1.447-1.633 2.007-.426.56-.815 1.059-.866 1.109-.051.05-.315.39-.587.756-.273.365-.599.777-.725.915-.127.138-.312.377-.411.532-.1.155-.761 1.05-1.469 1.989-1.359 1.803-3.809 5.389-5.135 7.514-.436.699-1.067 1.697-1.403 2.218-.336.521-.632 1.052-.658 1.179-.026.128-.104.276-.173.328-.607.459-5.938 10.728-7.77 14.968-.517 1.198-1.107 2.546-1.309 2.995-1.331 2.952-3.982 10.622-5.518 15.971-1.407 4.896-3.078 7.155-6.511 8.8-7.762 3.721-16.994-2.943-15.731-11.355.458-3.052 5.259-17.832 6.923-21.311.095-.199.795-1.792 1.555-3.539 2.758-6.337 6.83-14.139 10.394-19.914.568-.921 1.396-2.269 1.84-2.995.444-.725 1.028-1.607 1.298-1.958 3.841-4.998 3.999-13.607.358-19.524-3.521-5.722-11.617-9.624-17.617-8.493m252.716 19.717-.901.953.953-.901c.524-.495.953-.924.953-.952 0-.136-.169.015-1.005.9m-1.638 1.634-.534.59.59-.534c.55-.496.674-.646.533-.646-.031 0-.296.265-.589.59m-1.45 1.452-.717.771.771-.717c.718-.668.855-.826.718-.826-.03 0-.377.347-.772.772m-1.454 1.452-.533.589.589-.533c.55-.497.674-.646.534-.646-.032 0-.297.265-.59.59m-1.449 1.451-.718.772.772-.718c.717-.667.854-.825.717-.825-.03 0-.377.347-.771.771m-1.455 1.452-.533.59.59-.533c.549-.497.673-.647.533-.647-.032 0-.297.266-.59.59m-1.449 1.452-.718.772.772-.718c.717-.667.855-.825.717-.825-.029 0-.377.347-.771.771m-1.455 1.452-.533.59.59-.533c.55-.497.673-.647.533-.647-.031 0-.297.266-.59.59m-1.449 1.452-.717.771.771-.717c.717-.667.855-.825.717-.825-.029 0-.376.347-.771.771m-1.455 1.452-.533.59.59-.533c.55-.497.673-.647.533-.647-.031 0-.297.266-.59.59m-1.449 1.452-.717.771.771-.717c.717-.667.855-.825.718-.825-.03 0-.377.347-.772.771m-1.455 1.452-.533.59.59-.533c.55-.497.674-.647.533-.647-.031 0-.296.265-.59.59m-1.449 1.452-.717.771.771-.717c.718-.668.855-.826.718-.826-.03 0-.377.347-.772.772m-1.454 1.452-.533.589.589-.533c.55-.497.674-.646.533-.646-.031 0-.296.265-.589.59m-1.449 1.451-.718.772.772-.718c.424-.394.771-.741.771-.771 0-.137-.158 0-.825.717m-1.455 1.452-.533.59.59-.533c.549-.497.673-.646.533-.646-.032 0-.297.265-.59.589m-1.449 1.452-.718.772.772-.718c.717-.667.854-.825.717-.825-.03 0-.377.347-.771.771m-1.455 1.452-.533.59.59-.533c.55-.497.673-.647.533-.647-.031 0-.297.266-.59.59m-1.449 1.452-.717.771.771-.717c.717-.667.855-.825.717-.825-.029 0-.376.347-.771.771m-1.455 1.452-.533.59.59-.533c.55-.497.673-.647.533-.647-.031 0-.297.266-.59.59m-1.449 1.452-.717.771.771-.717c.717-.667.855-.825.718-.825-.03 0-.377.347-.772.771m-1.455 1.452-.533.59.59-.533c.55-.497.673-.647.533-.647-.031 0-.296.265-.59.59m-1.449 1.452-.717.771.771-.717c.718-.668.855-.826.718-.826-.03 0-.377.347-.772.772m-1.454 1.452-.533.589.589-.533c.55-.496.674-.646.533-.646-.031 0-.296.265-.589.59m-1.449 1.452-.718.771.771-.718c.425-.394.772-.741.772-.771 0-.137-.158 0-.825.718m-1.455 1.451-.533.59.59-.533c.549-.497.673-.646.533-.646-.032 0-.297.265-.59.589m-1.449 1.452-.718.772.772-.718c.717-.667.854-.825.717-.825-.03 0-.377.347-.771.771m-1.455 1.452-.533.59.59-.533c.55-.497.673-.647.533-.647-.031 0-.297.266-.59.59m-1.449 1.452-.717.771.771-.717c.717-.667.855-.825.717-.825-.029 0-.376.347-.771.771m-1.455 1.452-.533.59.59-.533c.55-.497.673-.647.533-.647-.031 0-.297.266-.59.59m-1.449 1.452-.717.771.771-.717c.717-.667.855-.825.717-.825-.029 0-.376.347-.771.771m-1.455 1.452-.533.59.59-.533c.55-.497.673-.647.533-.647-.031 0-.296.265-.59.59m-1.449 1.452-.717.771.771-.717c.424-.395.772-.742.772-.772 0-.137-.158 0-.826.718m-1.454 1.452-.534.59.59-.534c.55-.496.674-.646.533-.646-.031 0-.296.265-.589.59m-1.449 1.452-.718.771.771-.718c.718-.667.855-.825.718-.825-.03 0-.377.347-.771.772m-1.455 1.451-.533.59.59-.533c.549-.497.673-.646.533-.646-.032 0-.297.265-.59.589m-1.449 1.452-.718.772.772-.718c.717-.667.854-.825.717-.825-.03 0-.377.347-.771.771m-1.455 1.452-.533.59.59-.533c.55-.497.673-.647.533-.647-.031 0-.297.266-.59.59m-74.711 22.954c-.553.623-1.931 3.464-3.59 7.4-.188.448-1.52 3.913-2.441 6.352-.97 2.568-1.758 4.226-2.69 5.657-1.257 1.931-1.678 2.991-2.577 6.487-.958 3.724-1.88 5.828-3.823 8.727-.67.999-1.221 1.914-1.225 2.034-.005.121-.066.183-.136.14-.071-.043-.526.389-1.011.961-.486.572-2.926 3.113-5.423 5.647-2.497 2.533-4.668 4.738-4.825 4.9-.254.261-1.953 2.241-3.011 3.509-1.942 2.33-3.113 4.26-5.975 9.851-2.486 4.857-3.342 7.108-3.342 8.783 0 .686-.019.685.944.047 1.014-.672 1.297-.822 4.954-2.628 1.697-.838 3.412-1.713 3.812-1.943 1.75-1.011 5.24-2.898 5.36-2.898.23 0 .562-.508.397-.61-.087-.054-.627.025-1.2.174-1.225.32-1.701.217-1.857-.404-.396-1.578 2.385-4.004 5.477-4.777.932-.233 1.871-.656 3.005-1.353.907-.559 1.672-1.015 1.7-1.015.027 0 .366-.136.752-.302 1.012-.435 1.134-.446 4.333-.402 1.597.022 3.68.039 4.628.037l1.724-.003 1.952-1.019c6.18-3.222 7.14-4.898 6.917-12.078-.134-4.355-.022-5.561.847-9.101.959-3.903 1.015-4.693.574-8.031-.214-1.622-.476-4.076-.582-5.454-.31-4.048-1.494-9.922-3.017-14.964-.503-1.667-.581-2.689-.252-3.303.288-.54-.012-.857-.399-.421"/><path fill="#4284f4" d="M349.579 81.319c-8.814.86-15.641 8.232-15.956 17.23-.162 4.594.617 7.173 3.52 11.658 1.739 2.685 3.398 5.394 4.643 7.579.597 1.048 1.355 2.355 1.683 2.904.597.996 4.727 9.179 5.587 11.07 2.689 5.906 5.231 12.511 7.091 18.421.566 1.797 1.374 4.329 1.796 5.627 1.937 5.949.456 10.912-4.175 13.994-4.27 2.84-11.353 1.969-14.14-1.739-.115-.152-.425-.522-.69-.822-.582-.658-2.277-4.108-2.277-4.635 0-.984-4.509-14.169-5.801-16.962-.184-.399-.719-1.624-1.188-2.722-2.913-6.819-8.382-16.637-12.772-22.932-.86-1.233-1.685-2.417-1.832-2.631-.277-.403-2.992-3.992-4.269-5.646-1.21-1.565-4.148-5.015-5.567-6.538-.467-.501-1.023-1.114-1.237-1.364-1.095-1.28-3.71-3.798-3.8-3.661-.058.087-.206.191-.33.231-.124.04-12.878 12.723-28.342 28.186l-28.117 28.112.522 1.833c.999 3.506 1.274 5.047 2.799 15.656.315 2.189.929 5.272 1.278 6.413 1.35 4.414 2.303 7.149 3.006 8.632.193.406.35.798.35.871 0 .709 2.611 5.173 4.791 8.192.793 1.098 1.703 2.364 2.023 2.813 1.794 2.521 5.474 9.174 6.456 11.672.204.518.477 1.186.609 1.486.377.862 1.543 3.872 2.037 5.263 2.128 5.984 6.169 14.285 9.32 19.147.291.449.587.939.658 1.089.51 1.083 3.699 5.324 5.296 7.04 2.072 2.229 3.021 3.709 5.373 8.386 3.275 6.512 3.821 7.986 2.958 7.986-.924 0-1.635-.73-2.679-2.751-1.857-3.596-1.996-3.533-1.996.907 0 4.564-1.043 8.527-2.292 8.705-.608.087-.652-.576-.232-3.537.657-4.624.02-6.538-1.014-3.052-1.155 3.893-2.219 6.278-3.022 6.78-.925.578-.933-.755-.019-3.168l.681-1.797v-2.94c0-3.456-.324-4.472-.512-1.607-.283 4.3-2.684 8.405-6.635 11.339-1.168.868-1.285.976-.885.823.231-.089 3.504 3.082 13.468 13.045 7.24 7.239 13.327 13.214 13.528 13.278.2.063.365.253.367.421.008.889.325.739 1.942-.915 2.063-2.109 3.997-4.185 4.589-4.923.249-.311.828-.975 1.287-1.476.458-.501 1.224-1.401 1.701-2 1.758-2.207 2.006-2.514 2.189-2.706.187-.197 2.574-3.381 3.262-4.35.199-.282.615-.851.923-1.265 3.503-4.706 8.355-12.858 11.629-19.537 2.218-4.524 4.496-9.749 5.501-12.613.175-.5.664-1.888 1.086-3.086.884-2.506 1.652-4.924 2.305-7.259.251-.899.524-1.797.606-1.997.082-.199.287-.812.454-1.361 2.948-9.651 16.116-10.752 20.629-1.724 1.077 2.155 1.379 5.912.648 8.076-.152.449-.535 1.715-.853 2.813-.961 3.328-3.321 10.451-4.088 12.342-.081.199-.575 1.469-1.097 2.821-.522 1.353-1.114 2.823-1.315 3.267-.201.444-.571 1.3-.823 1.902-1.306 3.121-4.968 10.506-7.017 14.151-1.49 2.651-4.264 7.255-5.533 9.182-.353.535-.643 1.057-.645 1.159-.002.102-.252.553-.557 1.002-5.097 7.515-3.253 18.694 3.971 24.089.37.277.784.608.92.737.555.525 4.395 2.207 5.866 2.568 7.919 1.947 15.951-1.545 20.089-8.733.479-.831 1.639-2.734 2.579-4.231 2.181-3.471 2.103-3.34 4.561-7.715 2.572-4.579 5.284-9.867 7.074-13.793.296-.649.659-1.425.806-1.724.148-.3.799-1.81 1.448-3.358.648-1.547 1.373-3.262 1.611-3.811 4.836-11.179 10.132-30.27 12.158-43.829.164-1.098.371-2.405.461-2.904.486-2.721 1.227-10.154 1.665-16.697.304-4.538.303-19.303-.001-23.593-.321-4.537-.882-10.492-1.221-12.977-.157-1.148-.442-3.23-.633-4.628-.406-2.969-1.058-6.704-1.84-10.526-.306-1.497-.622-3.049-.703-3.448-4.16-20.528-14.362-44.933-27.049-64.701-5.279-8.225-10.712-11.289-18.646-10.514m-119.882 95.775c-.057.092-.007.421.11.732.254.671.057 1.8-.787 4.527-1.534 4.956-2.341 9.4-2.7 14.853-.099 1.508-.351 3.463-.561 4.345-.485 2.044.065 6.907 1.147 10.125.113.337.213 2.691.241 5.696.069 7.452.586 8.765 4.47 11.338 1.463.97 2.366 1.501 5.951 3.5l1.724.961 3.267.089c3.747.101 3.739.099 6.544 1.766 1.483.881 2.363 1.28 3.196 1.448 3.031.611 5.233 2.509 5.233 4.512v.731l5.127 2.573c2.82 1.415 5.658 2.926 6.307 3.358l1.179.786.063-.487c.267-2.069-3.577-10.5-7.439-16.315-2.105-3.169-3.845-5.136-10.387-11.742-7.552-7.626-9.464-10.645-11.102-17.531-.565-2.377-1.212-3.894-2.698-6.334-.572-.938-1.283-2.327-1.58-3.085-.297-.759-.659-1.637-.804-1.951-.145-.315-.263-.639-.263-.722 0-.083-.281-.846-.623-1.697-.343-.85-.966-2.445-1.386-3.543-1.6-4.189-3.889-8.483-4.229-7.933m-101.99 94.896c-.066.067-.121.206-.121.309 0 .119.074.114.204-.016.112-.112.336-.162.499-.11.255.081.259.067.023-.102-.319-.23-.44-.246-.605-.081m-2.846 3.204c-.448.431-.932.941-1.076 1.134-.144.193.244-.137.862-.732.618-.596 1.124-1.107 1.124-1.135 0-.122-.143-.007-.91.733m13.751-.469c.424.038 1.118.038 1.542 0 .424-.039.077-.07-.771-.07-.849 0-1.196.031-.771.07m-16.655 3.373c-.448.431-.932.941-1.076 1.134-.144.193.244-.137.862-.733.619-.595 1.125-1.106 1.125-1.134 0-.122-.143-.007-.911.733m-2.904 2.903c-.447.431-.931.942-1.076 1.135-.144.193.244-.137.863-.733.618-.596 1.124-1.106 1.124-1.134 0-.122-.143-.007-.911.732m-2.904 2.904c-.447.431-.931.942-1.075 1.135-.144.192.243-.137.862-.733.618-.596 1.124-1.106 1.124-1.134 0-.122-.143-.007-.911.732m-2.904 2.904c-.447.431-.931.941-1.075 1.134-.144.193.244-.136.862-.732s1.124-1.106 1.124-1.135c0-.121-.143-.006-.911.733m-2.903 2.904c-.448.431-.932.941-1.076 1.134-.144.193.244-.137.862-.732.618-.596 1.124-1.107 1.124-1.135 0-.122-.143-.007-.91.733m-2.904 2.904c-.448.431-.932.941-1.076 1.134-.144.193.244-.137.862-.733.619-.595 1.124-1.106 1.124-1.134 0-.122-.142-.007-.91.733m-2.904 2.903c-.447.431-.931.942-1.076 1.135-.144.193.244-.137.862-.733.619-.596 1.125-1.106 1.125-1.134 0-.122-.143-.007-.911.732m-2.447 2.451c-.2.175-.524.52-.721.765-.197.246-.014.124.408-.27.691-.646.859-.838.721-.819-.024.003-.208.149-.408.324m-1.681 1.604c-.457.513-.529.824-.158.682.234-.09.735-.968.619-1.084-.03-.03-.237.151-.461.402m1.953 3.057c.339.349.657.635.707.635.05 0-.187-.286-.525-.635-.339-.35-.657-.636-.707-.636-.049 0 .187.286.525.636m13.083 11.027c.041.026.259.202.484.391.224.189.408.296.408.238 0-.183-.561-.676-.769-.676-.11 0-.165.021-.123.047m-26.15 22.836c-.301.247-.332.308-.091.184.592-.306.921-.557.726-.556-.099.001-.385.168-.635.372m-3.085 2.616c-.441.449-.761.816-.711.816.05 0 .452-.367.892-.816.441-.449.761-.817.711-.817-.05 0-.451.368-.892.817m-4.335 7.549c-.111.32-.197.671-.19.781.008.11.13-.12.273-.51.144-.391.229-.742.19-.781-.039-.039-.161.191-.273.51m89.865 1.071c0 .45.036.633.079.409.043-.225.043-.592 0-.817-.043-.225-.079-.041-.079.408m-4.586 8.91c-.35.303-.471.472-.271.375.332-.16 1.155-.943.979-.931-.04.002-.359.253-.708.556m146.903 7.107-.533.59.59-.533c.55-.497.673-.647.533-.647-.031 0-.297.265-.59.59m-35.229 19.675c.065.065.025.233-.091.373-.179.215-.136.219.279.03.352-.16.424-.264.257-.37-.279-.177-.614-.202-.445-.033m-123.456 11.562c.042.037.402.116.802.177.506.077.616.061.363-.054-.349-.158-1.321-.26-1.165-.123m17.09 3.144c.175.045.461.045.635 0 .175-.046.032-.083-.317-.083-.35 0-.493.037-.318.083m37.205 1.633c.175.046.461.046.635 0 .175-.046.032-.083-.317-.083-.35 0-.492.037-.318.083"/><path fill="#34a853" d="M199.909 259.459c-.898.35-2.041.791-2.541.979-.499.189-1.438.544-2.087.789-.649.246-1.833.705-2.631 1.02-.799.316-1.942.745-2.541.953-.599.209-1.252.478-1.452.6-.2.121-.771.317-1.27.436-.5.119-1.08.328-1.291.464-.21.136-.864.385-1.452.552-.588.168-1.314.414-1.613.547-.918.407-3.649 1.317-7.532 2.508-1.638.502-7.041 1.64-8.711 1.833-.549.064-1.162.184-1.362.266-.199.082-1.179.291-2.177.464-.999.173-2.305.438-2.904.587-.599.15-1.661.375-2.36.5-1.738.311-4.782.949-6.533 1.369-4.156.997-11.044 1.591-14.701 1.267-3.391-.301-5.046-.742-7.77-2.071l-.874-.426-13.691 13.708c-7.529 7.54-13.69 13.771-13.69 13.849 0 .077-.132.272-.294.434-.271.271-.168.415 1.316 1.84 3.43 3.296 6.504 6.046 8.494 7.601 1.115.871 2.727 2.158 3.014 2.406.803.694 2.155 1.678 2.306 1.678.096 0 .411.209.7.465 2.071 1.832 7.877 5.657 8.243 5.431.097-.061.177.013.177.165 0 .151.593.62 1.316 1.041.724.422 1.438.869 1.588.992.15.124.803.491 1.452.815.649.324 1.345.736 1.547.914.686.608 11.829 6.123 13.715 6.789.423.149.857.344.966.433.108.09.646.327 1.195.527s1.447.538 1.996.751c3.157 1.222 9.005 3.239 10.799 3.724 6.94 1.876 8.325 2.594 10.377 5.382 4.004 5.438 2.108 13.621-3.816 16.47-3.319 1.595-5.919 1.674-10.372.314-1.098-.336-2.446-.747-2.995-.914-3.008-.914-6.362-1.994-7.078-2.278-.449-.178-1.429-.547-2.178-.82-1.653-.603-6.234-2.39-6.987-2.725-.3-.133-1.239-.545-2.087-.914-.849-.37-2.447-1.101-3.552-1.625-1.104-.525-2.186-1.01-2.404-1.079-.218-.069-.396-.202-.396-.295 0-.093-.082-.17-.183-.17-.218 0-1.412-.575-3.266-1.573-.748-.403-2.137-1.126-3.085-1.606-.948-.48-1.847-.972-1.996-1.093-.15-.121-.803-.506-1.452-.855-.649-.35-1.791-1.015-2.538-1.478-.747-.463-1.456-.804-1.577-.758-.12.046-.244-.043-.275-.197-.053-.265-.622-.659-2.177-1.507-.367-.201-.717-.443-.776-.539-.302-.489-3.09-2.016-4.998-2.737-.35-.132-.72-.304-.824-.381-.789-.593-7.568-.802-9.34-.289-2.429.704-4.83 1.708-5.418 2.266-.135.128-.543.386-.907.573-1.253.642-4.927 4.657-4.927 5.383 0 .13-.115.302-.255.381-.491.28-1.743 3.537-2.288 5.953-.485 2.151-.027 7.1.844 9.115 1.312 3.035 2.892 5.487 4.362 6.765 1.101.959 1.833 1.553 2.234 1.815.229.15.63.442.891.649.26.207.963.653 1.562.991.599.339 1.579.95 2.178 1.36 1.048.717 4.282 2.682 5.679 3.45 1.626.895 1.962 1.093 2.259 1.333.173.14.881.549 1.573.909 2.94 1.53 3.935 2.069 4.192 2.269.149.117.884.496 1.633.842s1.402.67 1.452.72c.05.05.785.425 1.633.833.849.408 2.328 1.12 3.288 1.581.96.461 2.184 1.012 2.722 1.224.537.211 1.058.451 1.159.532.1.081.998.475 1.996.876.999.4 2.959 1.19 4.356 1.754 1.398.564 3.643 1.433 4.991 1.93 1.348.496 2.818 1.053 3.267 1.237.449.183 1.143.392 1.542.463.4.071.931.242 1.18.38.483.266 2.467.93 4.265 1.426.599.165 1.252.377 1.452.47.2.093.976.324 1.724.514.749.191 2.382.632 3.63.982 1.248.35 2.881.78 3.63.955.748.176 1.885.471 2.526.657.64.186 1.445.338 1.787.338.343 0 .88.118 1.195.261.314.144 2.123.552 4.02.907 1.896.356 3.856.725 4.356.82.499.096 1.397.229 1.996.295.599.067 1.17.183 1.27.258.1.075 1.162.235 2.36.356 1.197.12 2.586.298 3.085.394 8.663 1.678 28.412 2.216 41.833 1.139 4.586-.368 10.262-.951 11.252-1.157.449-.093 1.552-.258 2.45-.367.899-.109 2.205-.315 2.904-.458.699-.142 2.046-.383 2.995-.536.948-.152 2.296-.401 2.994-.553 1.617-.351 5.505-1.132 6.806-1.368.549-.099 1.366-.299 1.815-.445.449-.145 1.674-.477 2.722-.738 3.232-.805 4.38-1.117 6.262-1.7.998-.31 2.386-.722 3.085-.916.699-.193 2.128-.637 3.176-.985s2.314-.768 2.813-.934c.499-.166 1.847-.652 2.995-1.081 1.148-.428 2.454-.903 2.903-1.055.45-.152 1.96-.735 3.358-1.295 4.301-1.726 4.886-2.005 4.728-2.26-.042-.068.183-.126.501-.129.318-.002 1.028-.213 1.577-.468.549-.256 1.733-.809 2.631-1.23.899-.421 1.966-.921 2.372-1.11.405-.19.818-.345.915-.345.098 0 .338-.122.533-.271.195-.149 1.58-.888 3.077-1.642 1.497-.755 3.43-1.756 4.295-2.225 5.035-2.731 7.155-3.94 7.284-4.152.08-.132.216-.24.302-.24s.734-.347 1.439-.771c3.278-1.973 3.927-2.376 4.012-2.488.05-.066.458-.326.907-.578 3.009-1.688 3.581-2.125 5.304-4.048 10.941-12.219 1.192-31.431-15.164-29.884-2.862.271-8.462 2.354-8.469 3.15 0 .075-.119.136-.263.136-.242 0-2.314 1.136-2.732 1.498-.227.196-2.656 1.671-4.402 2.673-.723.415-1.315.831-1.315.923 0 .093-.102.17-.227.17-.237.002-.643.2-1.86.91-.4.233-1.339.74-2.088 1.127-.748.387-2.504 1.295-3.902 2.019-1.397.723-2.99 1.505-3.539 1.738-.549.232-1.406.62-1.905.862-.499.242-1.52.693-2.269 1.002-.748.309-1.483.663-1.633.786-.15.123-.681.347-1.18.499-.499.151-1.601.574-2.45.94-.848.366-1.992.816-2.541 1-.549.185-1.529.542-2.178.793-.648.252-2.813.986-4.809 1.632-9.541 3.086-10.943 3.364-13.917 2.752-3.056-.627-6.309-3.003-7.465-5.451-.281-.595-.629-1.314-.772-1.597-2.607-5.142 1.591-13.11 7.726-14.666 4.317-1.094 13.35-4.129 15.898-5.34.509-.242 1.015-.441 1.125-.441.11 0 1.572-.619 3.249-1.376 1.677-.758 3.311-1.455 3.632-1.55.321-.095.629-.246.685-.337.056-.09 1.386-.794 2.956-1.564s2.895-1.455 2.945-1.523c.05-.068.785-.494 1.633-.945 3.077-1.638 8.194-4.761 9.982-6.091.249-.186.78-.531 1.18-.766 1.048-.618 7.713-5.623 7.713-5.792 0-.078.184-.226.408-.329.225-.102.776-.488 1.225-.856 1.611-1.322 2.442-2.024 3.451-2.918.563-.499 1.671-1.479 2.461-2.178 4.444-3.927 5.368-5.214 4.047-5.633-.188-.06-6.264-6.029-13.5-13.266-11.377-11.376-13.214-13.141-13.565-13.042-.224.063-.797.32-1.273.57-2.826 1.483-8.649 1.473-16.467-.03-.748-.144-2.055-.356-2.903-.471-.849-.115-1.625-.271-1.724-.346-.1-.075-.549-.193-.999-.263-1.231-.192-6.836-1.298-9.709-1.917-1.398-.301-3.317-.712-4.265-.914-.949-.202-1.969-.439-2.269-.526-.299-.088-1.034-.252-1.633-.365-1.995-.378-3.619-.764-4.674-1.111-.575-.19-1.254-.344-1.509-.344-.571 0-2.141-.494-5.342-1.682-1.347-.5-2.899-1.03-3.448-1.177-.549-.147-1.039-.331-1.089-.409-.05-.078-.54-.273-1.089-.433-.549-.161-1.243-.409-1.543-.552-.299-.142-1.361-.563-2.359-.935-3.31-1.233-4.159-1.557-5.898-2.251-2.425-.967-2.277-.958-4.084-.253"/></g></svg>