<svg xmlns="http://www.w3.org/2000/svg" viewBox="0 0 595.27557 841.88977"><g xmlns="http://www.w3.org/2000/svg" xmlns:bx="https://boxy-svg.com" data-bx-workspace="master"><path d="M47.7314 383.5673c.3303 2.733-1.9999 19.3941-2.3614 23.9789-2.9927 37.9096 4.5068 77.55 19.3372 111.5959 2.7605 6.3375 5.5021 11.922 8.6578 17.7825 1.5578 2.8915 9.0174 14.9234 9.2421 16.4576 1.0602.8704.4964.3284 1.3493 1.5035 3.0221 4.1653 4.4975 6.7178 9.979 9.0761 5.5351 2.3814 12.9179 2.229 18.2121-.2972 9.613-4.5893 16.0398-17.4791 9.6349-29.6827-1.2001-2.2859-2.5294-4.2977-3.9805-6.5985-1.4717-2.3346-2.6899-4.47-4.1259-6.9588-6.8115-11.8097-16.5244-33.2423-19.0563-46.4837-2.8047-14.6712 13.4299-21.9496 22.3293-12.843 3.4385 3.5185 4.4044 10.2038 6.1802 15.4811 1.9618 5.833 3.755 10.6145 6.167 16.0517 7.1436 16.1029 14.851 27.3824 25.3457 40.2004 1.7552 2.1442 3.4098 3.9293 5.1693 5.9354 1.3974 1.5928 3.9062 3.629 5.2973 5.5958l.0637-1.9262c.6905-1.9925 2.0967-2.9178 3.4784-4.1828 1.5897-1.4542 1.6178-2.5793 4.2952-3.5908l1.4704-1.7296c.9666-1.8482-.1474-.1954.7905-1.2962l4.7715-4.8321c1.355-1.5904.5201-1.0309 2.1454-1.5623.557-1.4086 2.595-3.2474 3.983-4.4506 1.6658-1.4436 2.0617-3.0501 4.6342-4.0491.7961-.359 3.0794-2.7173 3.7282-3.4279.768-.8417.9453-1.1732 1.7682-1.9687 1.2213-1.1795.7168-1.0383 2.1979-1.4223-2.2703-2.0199-3.5178-2.8585-5.1556-5.6701-1.3056-2.2409-2.7223-5.4296-2.8403-8.1907-1.4086-1.0464-.3603-.7649-1.521-1.0227-.8567 4.6417 1.7445 8.5897 1.0977 13.2732-3.4891-.8504-3.0445-7.1037-5.16-9.8934-1.5141 2.3239.0275 6.4824-.0231 9.5112-4.5393-1.1338-3.5864-9.8958-3.4666-14.0724-3.1356 1.9132-1.9793 5.7094-5.8648 5.9086.2073-2.638 3.1082-8.7239 4.8552-10.2443.4009-3.6982 6.3257-9.9789 8.403-12.6076 9.8472-12.4602 14.2322-28.5038 21.0649-42.3858 2.4501-4.9789 5.2786-9.0199 8.1339-13.0041 11.4431-15.968 10.1731-30.7835 14.5738-48.6409-.3241-2.5181-31.6202-32.6167-34.064-35.0705-1.4904-1.496-32.4-33.4814-34.6241-33.9035-2.3496 2.7048-4.7597 4.9045-7.1567 7.7236-18.179 21.389-27.3088 38.6046-36.0814 67.006-2.136 6.9163-8.6134 13.5386-17.83 9.9302-7.7099-3.0189-9.8946-9.8778-7.1229-19.562 10.1387-35.4226 25.9644-52.9398 27.9556-60.3181 2.7373-10.1451-2.0542-17.5128-6.7902-21.9235-5.3822-5.0119-14.2142-7.2123-22.855-3.494-7.0918 3.0507-9.9147 8.496-13.9394 15.1332-11.4719 18.9176-20.8739 39.611-26.7019 61.5775-1.0827 4.0798-2.0686 7.6731-2.9459 11.9158-.5607 2.713-1.2837 9.8247-2.6449 11.6679z" style="fill:#ea4335;fill-rule:evenodd"/><path d="M404.0815 303.877c-2.0604 1.0065-45.7306 45.4559-51.6585 51.2333-2.9802 2.9053-5.5333 5.5227-8.4542 8.4623-3.2168 3.2381-7.8229 6.6522-7.4552 9.1935 6.0616 25.5567 1.9 30.2315 17.2112 51.9083 7.7643 10.9923 9.442 19.3972 14.477 30.9645 2.5263 5.8025 8.6884 16.8553 12.8255 21.5601 4.859 5.5258 10.9437 14.58 12.4022 21.8054-4.4163-.846-2.8197-3.8356-5.5732-6.0135-.3297.6119-.1636-.0468-.379 1.2426-.1924 1.1513-.0238-.2579-.0968.9621-.2042 3.403.5195 10.6283-3.23 12.1675-.3808-3.8662.9235-6.0247.2492-10.1632-.8224.7743-.301-.0568-1.074 1.3974-.1979.3728-.4377 1.1926-.5638 1.6234-.8111 2.7854-1.4611 6.1028-3.7719 7.5051-.9691-4.5449 2.033-2.6667 1.3611-12.6288-3.381 6.1889.3385 7.6593-10.2355 15.7489 2.5437.7299 4.6179 3.5221 6.8882 5.7949l17.2412 17.1307c4.1028 3.5983 7.4651 8.4435 10.5533 8.7426 1.955-1.679 5.7082-5.7774 7.4933-8.0527 13.4143-17.0932 20.0184-25.3138 28.9815-47.1599 2.8578-6.9656 6.7046-20.3456 7.6625-22.466 3.1762-7.0318 12.8467-10.391 20.2382-4.9401 7.1561 5.2773 4.9345 13.7496 2.0823 22.5141-5.0781 15.6046-11.0479 28.8129-18.6529 41.6053-3.6932 6.212-9.2615 12.4546-8.6403 21.9503.5614 8.5753 6.3238 15.1189 12.2199 17.8593 8.7058 4.0466 17.0807 2.0149 23.2365-2.944 3.9955-3.2193 8.9456-12.4421 12.1868-17.9586 7.625-12.9778 13.6272-26.5289 19.0338-41.7533 4.189-11.794 10.6339-35.6892 11.0784-48.9062 7.3703-45.8318-5.1305-102.98-26.2729-141.2942-3.873-7.0187-8.2943-15.4442-12.6663-21.1561-12.3778-16.1709-38.0457-7.7798-38.838 11.9271-.3809 9.4663 4.942 14.8179 10.323 23.9714 5.8548 9.9602 18.7709 38.2773 19.9616 48.96 1.0964 9.8359-8.629 17.5689-18.2321 13.8226-8.1208-3.1688-9.0286-13.2707-12.1624-22.1782-7.8054-22.1875-23.9002-48.6665-39.7497-62.4379z" style="fill:#4285f4;fill-rule:evenodd"/><path d="M207.455 195.9038c-.6207 1.092.2984.2891-1.4112 1.2294l-5.8586 2.0599c-2.633 1.0458-5.3709 2.1123-7.5076 3.0382-12.0762 5.2336-30.643 14.1742-41.0652 21.8585-23.3177 17.1919-.4315 49.5694 22.2668 37.0842 4.0891-2.2497 8.629-5.6439 13.0416-8.1152 4.9345-2.7635 8.6552-4.7222 13.541-7.0855 8.8176-4.2658 20.36-8.7576 30.4482-11.3495 7.6675-1.9705 11.4531-1.5797 15.8919 3.0533 3.6476 3.8069 4.947 9.7885 1.9699 15.3998-2.8778 5.4228-7.5438 6.0428-13.1633 7.9116l-15.6508 5.3404c-1.1321 1.049-4.1279 1.9718-5.9074 2.7123-2.2996.9572-4.4531 2.5975-6.3468 2.3914-.9435 1.6846-9.7642 6.0516-12.0413 7.3053-4.1216 2.2697-7.8248 5.1987-11.3307 7.6687-3.564 2.5113-6.9083 5.4153-10.6939 8.3593-3.5865 2.7904-6.3069 6.2764-9.7935 9.1448 2.2241.4221 33.1337 32.4075 34.6241 33.9035 2.4438 2.4538 33.7399 32.5524 34.064 35.0705l.1017.1243c1.1127-4.8678 5.0245-10.0252 8.4442-11.8609 5.4428-2.9215 12.657-.6631 17.1594-2.9464 3.6907-1.872 9.6187-5.6052 11.0073-9.0374 2.3383-5.7787-.2841-11.3682-.758-17.3255-3.3124-.0306-3.3842-2.982-3.8668-6.27-.5308-3.6134-2.0842-3.9331-1.8738-8.4255.6718-.3971.211-.0543 1.0552-.4027l1.6459-.7331c-.3197-4.4468-1.1039-14.2547 4.0092-17.1675 2.6954-6.3113 14.3652-11.2102 22.8431-6.2076 9.861 5.8199 12.7993 17.9567 9.7941 21.9952l.2279 2.3046c4.864-.8797 2.944 2.442 1.5204 7.0494-1.6296 5.276.6163 5.7449-4.1496 8.4429-.4808 3.7551-2.0293 9.7898-1.3125 12.8742 1.3362 5.7494 3.6058 5.1006 5.9529 8.3481 3.1044 1.2937 4.5661 3.2792 8.172 4.3806 3.617 1.1052 7.7348.2255 11.6185 1.2201 6.3525 1.6271 10.7457 7.3958 12.2661 13.0184l.1242.5002c-.3677-2.5413 4.2384-5.9554 7.4552-9.1935 2.9209-2.9396 5.474-5.557 8.4542-8.4623 5.9279-5.7774 49.5981-50.2268 51.6585-51.2333-4.1271-5.8093-20.7483-18.3982-27.5235-22.5834-10.825-6.6878-13.1065-8.1152-24.6545-13.3794-2.397-1.0927-6.9251-2.191-8.6646-3.6926-2.6124-.3459-17.5259-5.2199-19.6057-6.6416-5.9217-4.0491-7.4664-14.4976-3.1719-17.6333.369-2.6973 4.2258-5.1474 7.0081-5.9622 7.0019-2.0499 24.5777 5.4021 30.9109 7.8872 12.9254 5.0719 23.7878 11.2951 34.9137 18.4887 21.2554 13.744 44.5275-15.6777 26.9248-33.276-2.1729-2.1729-4.7628-3.8706-7.5807-5.6526l-7.2341-4.3944c-1.1582-.906-.4645-.2554-1.1782-1.1814-1.8938-.2073-8.3306-4.1577-10.7588-5.3822-3.7744-1.9025-6.8895-3.4166-10.6851-5.1624l-22.7027-9.171c-3.8219-.4876-9.2247-2.6848-12.9529-3.7307-2.0005-.5613-4.3732-1.0521-6.5704-1.5491-1.8057-.4083-4.6485-.7923-6.049-1.9568-2.1535.276-2.7492-.2753-3.062-.4945l-15.8988-2.1448c-5.2167-.901-10.5952-1.3418-15.9905-1.5566-21.1548-.8416-29.0683-.9091-49.4626 1.8963-11.513 1.5841-18.0529 2.8884-29.0277 5.9385-3.5521.9866-10.3105 3.6833-13.6103 3.3611z" style="fill:#fbbc04;fill-rule:evenodd"/><path d="M198.4351 509.9237c-1.4811.384-.9766.2428-2.1979 1.4223-.8229.7955-1.0002 1.127-1.7682 1.9687-.6488.7106-2.9321 3.0689-3.7282 3.4279-.7193 1.88-2.5588 3.2917-4.0204 4.6666-1.4617 1.3756-2.7511 3.2806-4.5968 3.8331-.743 2.1017-5.3285 6.7059-7.7074 7.6906l-1.4704 1.7296-5.5208 6.0278c-1.4861 1.649-.5083 1.0183-2.2528 1.7458l-.0637 1.9262 14.8579 12.9073c.6874.7386.2104.1005.8179 1.0246l1.1526.8579c2.4433.9054 4.0741 2.5943 6.2626 4.0954 2.1648 1.4848 3.9074 2.6405 6.079 3.9573 12.8131 7.7655 25.9077 14.4102 41.0853 18.6723 6.4898 1.8232 10.1431 2.5537 12.9079 7.1654 3.0632 5.1081 2.7517 10.2499-.3846 14.8923-6.4156 9.4956-19.7125 3.775-29.6265.2947-9.5219-3.343-19.4153-7.7649-27.4168-12.1837-10.4628-5.778-17.9498-12.7131-27.1308-12.7556-11.4275-.053-19.946 8.3737-21.4945 18.3251-2.5999 16.7061 12.8623 22.5522 14.492 24.9705 1.4348.2479 1.25.2522 2.8566 1.2269.979.5938 1.7239 1.0908 2.618 1.6309l15.3917 8.378c6.9388 3.4891 14.4845 6.7883 22.0996 9.638 16.5843 6.2058 32.4699 10.16 50.908 13.0328 53.1321 8.2775 111.875-4.5998 156.0066-31.2986 7.1985-4.3557 14.0699-7.4008 17.5458-14.7117 8.6334-18.1572-10.0014-36.7814-27.7558-29.3243-3.7032 1.5553-6.9794 3.8986-10.1151 5.7412-10.7737 6.3313-46.1002 24.5309-57.0919 22.26-8.7658-1.3949-14.3134-11.3488-9.2191-19.8461 2.1635-3.6077 4.7903-5.1318 9.816-6.5648 4.3813-1.2488 8.4361-2.8297 12.6195-3.815.3209-.3141 15.2031-6.6279 17.5402-7.8005 5.9279-2.9745 11.199-5.9616 16.4657-9.4263 10.7257-7.0562 20.8844-15.152 28.402-23.1922-3.0882-.2991-6.4505-5.1443-10.5533-8.7426l-17.2412-17.1307c-2.2703-2.2728-4.3445-5.065-6.8882-5.7949-9.3483 3.1294-13.5923 1.6534-23.3058-.0294-7.3934-1.2812-14.8954-3.0451-22.3531-4.6004-13.4717-2.811-18.6666-4.9833-30.6286-9.4945-2.7866-1.0514-6.7134-3.366-9.3914-2.4126-14.0524 5.0014-24.1781 10.1675-40.2273 13.1427-15.5846 2.8897-30.6729 8.694-45.7743 2.472z" style="fill:#34a853;fill-rule:evenodd"/><path d="M218.4379 467.6577c-.0674.1568-.1555.2161-.1967.4714l-.6337 1.3131c-.05.0981-.1486.2685-.2254.4015 2.2908 1.6453 2.0985-.1779 3.1356 2.1148-1.446 1.3811-.0181.5595-1.732.803l-18.1041 9.166c-.379-5.431 8.1695-19.2823 10.5084-22.2182 7.7911-9.7816 18.701-17.228 22.4673-27.2307 1.822-4.839 1.5703-7.7867 4.3089-12.0763 2.447-3.8343 3.4341-7.2903 5.0213-11.3457 1.7077-4.3657 3.6883-8.2025 5.223-11.8115l.7336 2.6967c1.3312 6.7241 3.564 10.8781 4.0948 20.1933.2566 4.5018 1.2381 8.5747.4402 13.1508-.8729 5.0076-1.807 6.8876-1.5685 12.7693.1998 4.9177.1992 8.2694-2.5356 11.1297-8.152 8.5248-15.8407 2.9371-21.6725 5.8243-5.3072 2.628-.2379.8011-7.299 3.2911zm101.3266-71.7044c3.559 2.6386 7.3746 17.5802 10.484 22.5946 5.218 8.413 1.6309 11.6323 11.0336 22.7963 5.0519 5.9991 11.2015 10.6758 16.081 17.2306 2.7636 3.7126 11.0242 16.8228 10.7869 22.7139-3.2318-2.0673-7.7118-4.1459-11.5667-6.0634-5.0082-2.4907-2.1123-1.1495-4.2777-4.7316-1.1333-1.8744-2.9802-2.6449-5.5489-3.3879-3.097-.8966-3.7189-1.9993-6.0135-2.9777-6.1945-2.6418-6.5398 2.781-19.926-7.0718-4.7191-3.4735-4.224-7.0237-4.0829-13.6447.2298-10.7825-4.5661-7.8673.007-32.4999.8873-4.7797 3.3436-10.5209 3.0233-14.9584zm-50.308-97.1133c-5.1131 2.9128-4.3289 12.7207-4.0092 17.1675l-1.6459.7331c-.8442.3484-.3834.006-1.0552.4027-.2104 4.4924 1.343 4.8121 1.8738 8.4255.4826 3.288.5544 6.2394 3.8668 6.27 1.2812.8086.8485-.8953 1.0752.9834l1.5828-.5969c.1305-.0399.2785-.1005.3984-.1292 1.8569-.4458.9534.7005 1.5747 1.511-.4808-.743-.4159-1.1776-1.9462-1.0652l-.379 5.9086c.6893 2.0061 1.9668 4.8702.6837 8.712-1.92 5.7481-1.0234 3.6046-3.6202 6.3794 2.4869 1.3942 2.2665-.6656 2.781 1.057-5.5564.2579-3.8937.7874-4.3695 2.2147-.8829-2.1585 1.1951-.384-1.1151-.708-1.0571-.148-.2098-.2304-1.9269.2348.0606.1392.2005.2984.2485.3808.0437.0762.1767.266.2236.3559.0405.0781.1479.2361.1829.3178.0287.0687.108.213.1261.281.6781 2.5288.4846-1.7645-.3453 1.433-.7754 2.9864.5726 2.51.5782 2.5125-1.2194-.2984-1.4654-1.594-3.2986-1.5085-4.7959.2229-.133.9322-2.6031 2.111-1.4548-.5569.1561.4128-.811-.8935l-.7749-1.195c-1.8782.0493-2.0667-.1468-3.7001.63-4.588 2.1822-5.3797-1.1021-10.0327 1.2319.0843.2148-1.1395 1.3343 1.7795.7811-1.4079.7986-1.7582.2679-2.7585 1.4224-1.7483-1.4973.8617-.4677-1.6765-1.3106-.575 1.0739.2286.4645-.2054 1.5653l-1.2544 1.7739c.5745 1.3199.2954.4651 1.0521 1.4379 1.6665 2.1411-.3634-1.895.5582.6763-2.8397 1.2918-1.8825-1.4349-4.214 1.2768-1.5453 1.797.3097 2.226-3.6664 3.3886l-.1017-.1243c-4.4007 17.8574-3.1307 32.6729-14.5738 48.6409-2.8553 3.9842-5.6838 8.0252-8.1339 13.0041-6.8327 13.882-11.2177 29.9256-21.0649 42.3858-2.0773 2.6287-8.0021 8.9094-8.403 12.6076.3715 1.8819.2123.9959-.5095 3.2568 2.0661-.1361 1.7458.4552 2.6274-.8885l.1149 8.2313c.6375-.8367.9934-1.7889 1.7383-2.9746 1.0396.0481.7892-.1286 1.5966.3503l1.3961 1.3318c.002-2.8628.5775-3.1119.5913-5.7287l1.8731.8229c1.4798.9778.8898.216.6544 2.1385.118 2.7611 1.5347 5.9498 2.8403 8.1907 1.6378 2.8116 2.8853 3.6502 5.1556 5.6701 15.1014 6.222 30.1897.4177 45.7743-2.472 16.0492-2.9752 26.1749-8.1413 40.2273-13.1427 2.678-.9534 6.6048 1.3612 9.3914 2.4126 11.962 4.5112 17.1569 6.6835 30.6286 9.4945 7.4577 1.5553 14.9597 3.3192 22.3531 4.6004 9.7135 1.6828 13.9575 3.1588 23.3058.0294 10.574-8.0896 6.8545-9.56 10.2355-15.7489.6719 9.9621-2.3302 8.0839-1.3611 12.6288 2.3108-1.4023 2.9608-4.7197 3.7719-7.5051.1261-.4308.3659-1.2506.5638-1.6234.773-1.4542.2516-.6231 1.074-1.3974.6743 4.1385-.63 6.297-.2492 10.1632 3.7495-1.5392 3.0258-8.7645 3.23-12.1675.073-1.22-.0956.1892.0968-.9621.2154-1.2894.0493-.6307.379-1.2426 2.7535 2.1779 1.1569 5.1675 5.5732 6.0135-1.4585-7.2254-7.5432-16.2796-12.4022-21.8054-4.1371-4.7048-10.2992-15.7576-12.8255-21.5601-5.035-11.5673-6.7127-19.9722-14.477-30.9645-15.3112-21.6768-11.1496-26.3516-17.2112-51.9083l-.1242-.5002c-1.3849-.1966-1.9481-.3477-2.2878.5451.4952-3.0176.1955-2.929-2.2815-3.3991-.7673.9921-.6187.4296-.8054 2.0461-.2273 1.9606-.3341.3615.4583 1.2331-2.0624-1.4067-1.7077-2.2702-1.3974-3.1643l.6843-1.6853-3.8169-2.5512c-.1017.0269-.3465.2591-.4239.4171.0175-.62 1.0227-2.3795.5351-3.7469-2.7329-.8885-1.915-.1911-4.7179-.3541-2.1341-.1236-2.5612-1.2475-4.2714-1.5503-3.0489-.5401-2.5044.4895-4.9008 1.0689-1.7089.4127-1.5603-.0218-3.5503-.1798-.1935-6.4187.4084 1.3043-4.1502-5.3547l-1.1308-1.9437c-2.3471-3.2475-4.6167-2.5987-5.9529-8.3481-.7168-3.0844.8317-9.1191 1.3125-12.8742 4.7659-2.698 2.52-3.1669 4.1496-8.4429 1.4236-4.6074 3.3436-7.9291-1.5204-7.0494l-.2279-2.3046c-.5756-2.2321-.4039-3.1756-.4039-5.4946l-.6188.3185c-.6231.954-.0787 1.4604-.0787 1.4698.007-1.0846.384-4.6773-.3265-5.2829l-.7012-.6013c-.1068-.0856-.2292-.1761-.3378-.2598l-1.5678-1.1033c-1.4193-.9116-.1199-.2048-1.3643-.7642-.1343-.06-1.2145-.4152-1.4854-.5126 1.2862-1.4193 1.0851.1417 1.057-3.1719-4.7309-.1998-1.6483.3727-3.7007.926.0806-1.0496-.0712-.0438 1.4673-1.8782 1.7346-2.068.9734.1711 1.3131-1.8276-1.5023-1.1538-1.7464-.6537-1.8813-.6331-2.008.3084.7387.5064-1.22.291l-.65-.1418c-2.314-.1948-1.4554-.0312-3.1238.6207-.266-.7043.007-.8536-.4789-1.7071l-3.7501-2.9852-1.0577 1.5529c.1055-1.1183 2.0418-1.7283-1.5091-1.4124-2.5812.2291-1.8763 1.3693-2.0568 2.6973.9822.5751 1.3487 1.019 3.0221.8792 3.1038-.2598-.4452-.0206 1.8669-.7474-.6013.8641-1.3605 1.0508-2.6867.9428-3.4679-.2828-1.9163-.9035-4.6998.2829l-5.7362 2.3789c-1.4305.4976-.2498.4658-1.9281.3758z" style="fill:#fcfcfc;fill-rule:evenodd"/><path d="M319.7645 395.9533c.3203 4.4375-2.136 10.1787-3.0233 14.9584-4.573 24.6326.2229 21.7174-.007 32.4999-.1411 6.621-.6362 10.1712 4.0829 13.6447 13.3862 9.8528 13.7315 4.43 19.926 7.0718 2.2946.9784 2.9165 2.0811 6.0135 2.9777 2.5687.743 4.4156 1.5135 5.5489 3.3879 2.1654 3.5821-.7305 2.2409 4.2777 4.7316 3.8549 1.9175 8.3349 3.9961 11.5667 6.0634.2373-5.8911-8.0233-19.0013-10.7869-22.7139-4.8795-6.5548-11.0291-11.2315-16.081-17.2306-9.4027-11.164-5.8156-14.3833-11.0336-22.7963-3.1094-5.0144-6.925-19.956-10.484-22.5946z" style="fill:#4285f4;fill-rule:evenodd"/><path d="M218.7857 472.7615c-.9303-.7799-.0818-.4334-1.6578-.7437-.1592-.0318-1.3224-.015-1.629-.0431-.008-2.7697.8017-3.3873 2.939-4.317l1.9656-1.3574c7.0611-2.49 1.9918-.6631 7.299-3.2911 5.8318-2.8872 13.5205 2.7005 21.6725-5.8243 2.7348-2.8603 2.7354-6.212 2.5356-11.1297-.2385-5.8817.6956-7.7617 1.5685-12.7693.7979-4.5761-.1836-8.649-.4402-13.1508-.5308-9.3152-2.7636-13.4692-4.0948-20.1933l-.7336-2.6967c-1.5347 3.609-3.5153 7.4458-5.223 11.8115-1.5872 4.0554-2.5743 7.5114-5.0213 11.3457-2.7386 4.2896-2.4869 7.2373-4.3089 12.0763-3.7663 10.0027-14.6762 17.4491-22.4673 27.2307-2.3389 2.9359-10.8874 16.7872-10.5084 22.2182z" style="fill:#ea4335;fill-rule:evenodd"/><path d="M268.4868 331.8388c.4739 5.9573 3.0963 11.5468.758 17.3255-1.3886 3.4322-7.3166 7.1654-11.0073 9.0374-4.5024 2.2833-11.7166.0249-17.1594 2.9464-3.4197 1.8357-7.3315 6.9931-8.4442 11.8609 3.9761-1.1626 2.1211-1.5916 3.6664-3.3886 2.3315-2.7117 1.3743.015 4.214-1.2768-.9216-2.5713 1.1083 1.4648-.5582-.6763-.7567-.9728-.4776-.118-1.0521-1.4379l1.2544-1.7739c.434-1.1008-.3696-.4914.2054-1.5653 2.5382.8429-.0718-.1867 1.6765 1.3106 1.0003-1.1545 1.3506-.6238 2.7585-1.4224-2.919.5532-1.6952-.5663-1.7795-.7811 4.653-2.334 5.4447.9503 10.0327-1.2319 1.6334-.7768 1.8219-.5807 3.7001-.63l.7749 1.195c.9671 1.3063-.6438.3366.811.8935 2.4701-1.1788-2.1928-1.8881 2.6031-2.111 1.8332-.0855 2.0792 1.2101 3.2986 1.5085-.006-.002-1.3536.4739-.5782-2.5125.8299-3.1975 1.0234 1.0958.3453-1.433-.0181-.068-.0974-.2123-.1261-.281-.035-.0817-.1424-.2397-.1829-.3178-.0469-.0899-.1799-.2797-.2236-.3559-.048-.0824-.1879-.2416-.2485-.3808 1.7171-.4652.8698-.3828 1.9269-.2348 2.3102.324.2322-1.4505 1.1151.708.4758-1.4273-1.1869-1.9568 4.3695-2.2147-.5145-1.7226-.2941.3372-2.781-1.057 2.5968-2.7748 1.7002-.6313 3.6202-6.3794 1.2831-3.8418.006-6.7059-.6837-8.712l.379-5.9086c1.5303-.1124 1.4654.3222 1.9462 1.0652-.6213-.8105.2822-1.9568-1.5747-1.511-.1199.0287-.2679.0893-.3984.1292l-1.5828.5969c-.2267-1.8787.206-.1748-1.0752-.9834z" style="fill:#fefeec;fill-rule:evenodd"/><path d="M269.4565 298.84c1.6783.09.4976.1218 1.9281-.3758l5.7362-2.3789c2.7835-1.1864 1.2319-.5657 4.6998-.2829 1.3262.108 2.0854-.0787 2.6867-.9428-2.3121.7268 1.2369.4876-1.8669.7474-1.6734.1398-2.0399-.3041-3.0221-.8792.1805-1.328-.5244-2.4682 2.0568-2.6973 3.5509-.3159 1.6146.2941 1.5091 1.4124l1.0577-1.5529 3.7501 2.9852c.4858.8535.2129 1.0028.4789 1.7071 1.6684-.6519.8098-.8155 3.1238-.6207l.65.1418c1.9587.2154-.788.0174 1.22-.291.1349-.0206.379-.5207 1.8813.6331-.3397 1.9987.4215-.2404-1.3131 1.8276-1.5385 1.8344-1.3867.8286-1.4673 1.8782 2.0524-.5533-1.0302-1.1258 3.7007-.926.0281 3.3136.2292 1.7526-1.057 3.1719.2709.0974 1.3511.4526 1.4854.5126 1.2444.5594-.055-.1474 1.3643.7642l1.5678 1.1033c.1086.0837.231.1742.3378.2598l.7012.6013c.7105.6056.3334 4.1983.3265 5.2829 0-.009-.5444-.5158.0787-1.4698l.6188-.3185c0 2.319-.1717 3.2625.4039 5.4946 3.0052-4.0385.0669-16.1753-9.7941-21.9952-8.4779-5.0026-20.1477-.1037-22.8431 6.2076z" style="fill:#fcfcf4;fill-rule:evenodd"/><path d="M336.3894 372.2659c-1.5204-5.6226-5.9136-11.3913-12.2661-13.0184-3.8837-.9946-8.0015-.1149-11.6185-1.2201-3.6059-1.1014-5.0676-3.0869-8.172-4.3806l1.1308 1.9437c4.5586 6.659 3.9567-1.064 4.1502 5.3547 1.99.158 1.8414.5925 3.5503.1798 2.3964-.5794 1.8519-1.609 4.9008-1.0689 1.7102.3028 2.1373 1.4267 4.2714 1.5503 2.8029.163 1.985-.5344 4.7179.3541.4876 1.3674-.5176 3.1269-.5351 3.7469.0774-.158.3222-.3902.4239-.4171l3.8169 2.5512-.6843 1.6853c-.3103.8941-.665 1.7576 1.3974 3.1643-.7924-.8716-.6856.7275-.4583-1.2331.1867-1.6165.0381-1.054.8054-2.0461 2.477.4701 2.7767.3815 2.2815 3.3991.3397-.8928.9029-.7417 2.2878-.5451z" style="fill:#fefeec;fill-rule:evenodd"/><path d="M190.4392 496.0629c.2354-1.9225.8254-1.1607-.6544-2.1385l-1.8731-.8229c-.0138 2.6168-.5888 2.8659-.5913 5.7287l-1.3961-1.3318c-.8074-.4789-.557-.3022-1.5966-.3503-.7449 1.1857-1.1008 2.1379-1.7383 2.9746l-.1149-8.2313c-.8816 1.3437-.5613.7524-2.6274.8885.7218-2.2609.881-1.3749.5095-3.2568-1.747 1.5204-4.6479 7.6063-4.8552 10.2443 3.8855-.1992 2.7292-3.9954 5.8648-5.9086-.1198 4.1766-1.0727 12.9386 3.4666 14.0724.0506-3.0288-1.491-7.1873.0231-9.5112 2.1155 2.7897 1.6709 9.043 5.16 9.8934.6468-4.6835-1.9544-8.6315-1.0977-13.2732 1.1607.2578.1124-.0237 1.521 1.0227z" style="fill:#fef5f3;fill-rule:evenodd"/><path d="M218.7857 472.7615c1.7139-.2435.286.5781 1.732-.803-1.0371-2.2927-.8448-.4695-3.1356-2.1148.0768-.133.1754-.3034.2254-.4015l.6337-1.3131c.0412-.2553.1293-.3146.1967-.4714-2.1373.9297-2.9471 1.5473-2.939 4.317.3066.0281 1.4698.0113 1.629.0431 1.576.3103.7275-.0362 1.6578.7437z" style="fill:#faf3e8;fill-rule:evenodd"/><path d="M182.1236 525.2423c1.8457-.5525 3.1351-2.4575 4.5968-3.8331 1.4616-1.3749 3.3011-2.7866 4.0204-4.6666-2.5725.999-2.9684 2.6055-4.6342 4.0491-1.388 1.2032-3.426 3.042-3.983 4.4506zM174.4162 532.9329c2.3789-.9847 6.9644-5.5889 7.7074-7.6906-1.6253.5314-.7904-.0281-2.1454 1.5623l-4.7715 4.8321c-.9379 1.1008.1761-.552-.7905 1.2962zM165.1722 542.4361c1.7445-.7275.7667-.0968 2.2528-1.7458l5.5208-6.0278c-2.6774 1.0115-2.7055 2.1366-4.2952 3.5908-1.3817 1.265-2.7879 2.1903-3.4784 4.1828z" style="fill:#905b2d;fill-rule:evenodd"/></g></svg>